<svg width="20" height="20" viewBox="0 0 20 20" fill="none" xmlns="http://www.w3.org/2000/svg">
<path fill-rule="evenodd" clip-rule="evenodd" d="M5.58333 3.43968C3.98872 3.81429 2.76812 5.13358 2.53836 6.78072C2.5 7.0557 2.5 7.38354 2.5 8.03923C2.5 8.08021 2.5 8.1007 2.5024 8.11788C2.51783 8.22853 2.60481 8.31551 2.71546 8.33095C2.73265 8.33334 2.75314 8.33334 2.79412 8.33334H17.2059C17.2469 8.33334 17.2674 8.33334 17.2845 8.33095C17.3952 8.31551 17.4822 8.22853 17.4976 8.11788C17.5 8.1007 17.5 8.08021 17.5 8.03923C17.5 7.38354 17.5 7.0557 17.4616 6.78072C17.2319 5.13358 16.0113 3.81429 14.4167 3.43968L14.4167 5.41667C14.4167 6.2451 13.7451 6.91668 12.9167 6.91668C12.0882 6.91668 11.4167 6.24511 11.4167 5.41668L11.4167 3.33334H8.58333L8.58334 5.41668C8.58334 6.2451 7.91177 6.91668 7.08334 6.91668C6.25491 6.91668 5.58334 6.24511 5.58334 5.41668L5.58333 3.43968Z" fill="#162B61"/>
<path d="M2.5 9.60785C2.5 9.42879 2.5 9.33926 2.54375 9.27539C2.56121 9.24991 2.58323 9.22788 2.60872 9.21042C2.67258 9.16667 2.76211 9.16667 2.94118 9.16667H17.0588C17.2379 9.16667 17.3274 9.16667 17.3913 9.21042C17.4168 9.22788 17.4388 9.24991 17.4562 9.27539C17.5 9.33926 17.5 9.42879 17.5 9.60785C17.5 12.4728 17.5 13.9053 16.8 14.9272C16.5207 15.3349 16.1683 15.6874 15.7605 15.9667C14.7387 16.6667 13.3062 16.6667 10.4412 16.6667H9.55882C6.69384 16.6667 5.26134 16.6667 4.23945 15.9667C3.83174 15.6874 3.4793 15.3349 3.20001 14.9272C2.5 13.9053 2.5 12.4728 2.5 9.60785Z" fill="#B1B1B1"/>
<path d="M7.08334 2.08334L7.08334 5.41668" stroke="#162B61" stroke-linecap="round"/>
<path d="M12.9167 2.08334L12.9167 5.41668" stroke="#162B61" stroke-linecap="round"/>
</svg>
