<svg width="30" height="30" viewBox="0 0 30 30" fill="none" xmlns="http://www.w3.org/2000/svg">
<path d="M6.25 16.25V4.25C6.25 4.0143 6.25 3.89645 6.32322 3.82322C6.39645 3.75 6.5143 3.75 6.75 3.75H12.0958C12.2954 3.75 12.3951 3.75 12.4853 3.78643C12.5754 3.82286 12.6472 3.89219 12.7907 4.03084L14.7968 5.96916C14.9403 6.10781 15.0121 6.17714 15.1022 6.21357C15.1924 6.25 15.2921 6.25 15.4917 6.25H23.475C23.7177 6.25 23.839 6.25 23.8817 6.32817C23.9243 6.40635 23.8586 6.50838 23.7272 6.71243L20.1743 12.2293C20.0897 12.3607 20.0474 12.4265 20.0474 12.5C20.0474 12.5735 20.0897 12.6393 20.1743 12.7707L23.7272 18.2876C23.8586 18.4916 23.9243 18.5937 23.8817 18.6718C23.839 18.75 23.7177 18.75 23.475 18.75H15.4917C15.2921 18.75 15.1924 18.75 15.1022 18.7136C15.0121 18.6771 14.9403 18.6078 14.7968 18.4692L12.7907 16.5308C12.6472 16.3922 12.5754 16.3229 12.4853 16.2864C12.3951 16.25 12.2954 16.25 12.0958 16.25H6.25ZM6.25 16.25V23.75" stroke="#152A4F" stroke-width="2" stroke-linecap="round"/>
<path d="M6.25 4.25V15.75C6.25 15.9857 6.25 16.1036 6.32322 16.1768C6.39645 16.25 6.5143 16.25 6.75 16.25H12.0958C12.2954 16.25 12.3951 16.25 12.4853 16.2864C12.5754 16.3229 12.6472 16.3922 12.7907 16.5308L14.7968 18.4692C14.9403 18.6078 15.0121 18.6771 15.1022 18.7136C15.1924 18.75 15.2921 18.75 15.4917 18.75H23.475C23.7177 18.75 23.839 18.75 23.8817 18.6718C23.9243 18.5936 23.8586 18.4916 23.7272 18.2876L20.1743 12.7707C20.0897 12.6393 20.0474 12.5735 20.0474 12.5C20.0474 12.4265 20.0897 12.3607 20.1743 12.2293L23.7272 6.71243C23.8586 6.50838 23.9243 6.40635 23.8817 6.32818C23.839 6.25 23.7177 6.25 23.475 6.25H15.4917C15.2921 6.25 15.1924 6.25 15.1022 6.21357C15.0121 6.17714 14.9403 6.10781 14.7968 5.96916L12.7907 4.03084C12.6472 3.89219 12.5754 3.82286 12.4853 3.78643C12.3951 3.75 12.2954 3.75 12.0958 3.75H6.75C6.5143 3.75 6.39645 3.75 6.32322 3.82322C6.25 3.89645 6.25 4.0143 6.25 4.25Z" fill="#152A4F"/>
</svg>
