<svg width="30" height="30" viewBox="0 0 30 30" fill="none" xmlns="http://www.w3.org/2000/svg">
<circle cx="15" cy="11.25" r="5" fill="#152A4F"/>
<circle cx="21.25" cy="11.25" r="3.75" fill="#152A4F"/>
<circle cx="8.75" cy="11.25" r="3.75" fill="#152A4F"/>
<path fill-rule="evenodd" clip-rule="evenodd" d="M21.9606 22.5H25.1451C25.7367 22.5 26.1905 21.9914 26.0599 21.4144C25.6548 19.6245 24.4648 16.25 21.2501 16.25C20.1424 16.25 19.2752 16.6506 18.5976 17.2489C20.4822 18.4717 21.4567 20.6128 21.9606 22.5Z" fill="#152A4F"/>
<path fill-rule="evenodd" clip-rule="evenodd" d="M11.4025 17.2489C10.7249 16.6506 9.85761 16.25 8.75 16.25C5.53528 16.25 4.34526 19.6245 3.94016 21.4144C3.80956 21.9914 4.26335 22.5 4.85497 22.5H8.03944C8.5433 20.6128 9.51778 18.4717 11.4025 17.2489Z" fill="#152A4F"/>
<path d="M15 17.5C19.8232 17.5 20.9243 21.9665 21.1756 24.0058C21.2432 24.554 20.8023 25 20.25 25H9.75C9.19772 25 8.7568 24.554 8.82436 24.0058C9.07574 21.9665 10.1768 17.5 15 17.5Z" fill="#152A4F"/>
</svg>
