<svg width="30" height="30" viewBox="0 0 30 30" fill="none" xmlns="http://www.w3.org/2000/svg">
<rect width="30" height="30" fill="white"/>
<path d="M23.125 26.875H25.375C26.2034 26.875 26.875 26.2034 26.875 25.375V23.125" stroke="#152A4F" stroke-opacity="0.4" stroke-linecap="round"/>
<path d="M23.125 3.125H25.375C26.2034 3.125 26.875 3.79657 26.875 4.625V6.875" stroke="#152A4F" stroke-opacity="0.4" stroke-linecap="round"/>
<path d="M6.875 26.875H4.625C3.79657 26.875 3.125 26.2034 3.125 25.375V23.125" stroke="#152A4F" stroke-opacity="0.4" stroke-linecap="round"/>
<path d="M6.875 3.125H4.625C3.79657 3.125 3.125 3.79657 3.125 4.625V6.875" stroke="#152A4F" stroke-opacity="0.4" stroke-linecap="round"/>
<path d="M10.0129 20.7502C10.1658 17.8004 11.6868 15 15 15C18.3132 15 19.8342 17.8004 19.9871 20.7502C20.0014 21.0259 19.7761 21.25 19.5 21.25H10.5C10.2239 21.25 9.9986 21.0259 10.0129 20.7502Z" fill="#152A4F"/>
<path d="M17.5151 19.5003C17.6568 17.1775 18.8002 15 21.25 15C23.6998 15 24.8432 17.1775 24.9849 19.5003C25.0017 19.7759 24.7761 20 24.5 20H18C17.7239 20 17.4983 19.7759 17.5151 19.5003Z" fill="#152A4F"/>
<path d="M5.01514 19.5003C5.15683 17.1775 6.30017 15 8.75 15C11.1998 15 12.3432 17.1775 12.4849 19.5003C12.5017 19.7759 12.2761 20 12 20H5.5C5.22386 20 4.99833 19.7759 5.01514 19.5003Z" fill="#152A4F"/>
<circle cx="15" cy="11.25" r="2.5" fill="#152A4F"/>
<circle cx="21.25" cy="11.25" r="2.5" fill="#152A4F"/>
<circle cx="8.75" cy="11.25" r="2.5" fill="#152A4F"/>
</svg>
