<svg width="92" height="72" viewBox="0 0 92 72" fill="none" xmlns="http://www.w3.org/2000/svg">
<g filter="url(#filter0_d_398_570)">
<rect x="12" y="12" width="60" height="40" rx="16" fill="#40516F"/>
</g>
<path d="M54.9824 21.9398C55.1091 21.3393 54.5307 20.8329 53.9664 21.0521L29.49 30.5617C29.1955 30.6762 29.0006 30.9635 29 31.2844C28.9994 31.6054 29.1931 31.8935 29.4873 32.0091L36.3632 34.7119V43.2247C36.3632 43.5838 36.6054 43.8959 36.9487 43.9789C37.2897 44.0615 37.6453 43.8963 37.8051 43.5736L40.6489 37.8302L47.5888 43.072C48.011 43.3909 48.6178 43.1881 48.7714 42.6756C55.251 21.0538 54.9708 21.9941 54.9824 21.9398ZM48.9404 24.6644L37.0169 33.3067L31.8866 31.2902L48.9404 24.6644ZM37.8866 34.5798L48.2798 27.0467C39.3366 36.6489 39.8037 36.1435 39.7647 36.1969C39.7067 36.2762 39.8655 35.967 37.8866 39.9636V34.5798ZM47.6293 41.1718L41.5206 36.5577L52.566 24.6985L47.6293 41.1718Z" fill="white"/>
<defs>
<filter id="filter0_d_398_570" x="0" y="0" width="92" height="72" filterUnits="userSpaceOnUse" color-interpolation-filters="sRGB">
<feFlood flood-opacity="0" result="BackgroundImageFix"/>
<feColorMatrix in="SourceAlpha" type="matrix" values="0 0 0 0 0 0 0 0 0 0 0 0 0 0 0 0 0 0 127 0" result="hardAlpha"/>
<feMorphology radius="2" operator="erode" in="SourceAlpha" result="effect1_dropShadow_398_570"/>
<feOffset dx="4" dy="4"/>
<feGaussianBlur stdDeviation="9"/>
<feColorMatrix type="matrix" values="0 0 0 0 0.904427 0 0 0 0 0.893194 0 0 0 0 0.908333 0 0 0 0.8 0"/>
<feBlend mode="normal" in2="BackgroundImageFix" result="effect1_dropShadow_398_570"/>
<feBlend mode="normal" in="SourceGraphic" in2="effect1_dropShadow_398_570" result="shape"/>
</filter>
</defs>
</svg>
