<svg width="50" height="50" viewBox="0 0 50 50" fill="none" xmlns="http://www.w3.org/2000/svg">
<circle cx="25" cy="25" r="25" fill="#FF82AC" fill-opacity="0.2"/>
<path fill-rule="evenodd" clip-rule="evenodd" d="M34 25C34 29.9706 29.9706 34 25 34C20.0294 34 16 29.9706 16 25C16 20.0294 20.0294 16 25 16C29.9706 16 34 20.0294 34 25ZM29.1716 27.7574C29.6951 26.967 30 26.0191 30 25C30 22.2386 27.7614 20 25 20C23.9809 20 23.033 20.3049 22.2426 20.8284L29.1716 27.7574ZM20.8284 22.2426L27.7574 29.1716C26.967 29.6951 26.0191 30 25 30C22.2386 30 20 27.7614 20 25C20 23.9809 20.3049 23.033 20.8284 22.2426ZM25 18C21.134 18 18 21.134 18 25C18 28.866 21.134 32 25 32C28.866 32 32 28.866 32 25C32 21.134 28.866 18 25 18Z" fill="#FF82AC"/>
</svg>
