<svg width="50" height="50" viewBox="0 0 50 50" fill="none" xmlns="http://www.w3.org/2000/svg">
<circle cx="25" cy="25" r="25" fill="#DCFAF8"/>
<path fill-rule="evenodd" clip-rule="evenodd" d="M25 34C29.9706 34 34 29.9706 34 25C34 23.1666 33.4518 21.4612 32.5103 20.0389L25.355 27.9893C24.6624 28.7589 23.4968 28.8726 22.6684 28.2513L19.4 25.8C18.9582 25.4686 18.8686 24.8418 19.2 24.4C19.5314 23.9582 20.1582 23.8686 20.6 24.2L23.8684 26.6513L31.214 18.4896C29.5986 16.9472 27.4099 16 25 16C20.0294 16 16 20.0294 16 25C16 29.9706 20.0294 34 25 34Z" fill="#16DBCC"/>
</svg>
