<svg width="50" height="50" viewBox="0 0 50 50" fill="none" xmlns="http://www.w3.org/2000/svg">
<circle cx="25" cy="25" r="25" fill="#FFF5D9"/>
<path d="M19 21C19 17.6863 21.6863 15 25 15C28.3137 15 31 17.6863 31 21V22.831C31 24.2503 31.3857 25.6429 32.116 26.8599L32.6694 27.7823C33.0364 28.3941 33.22 28.7 33.2325 28.9497C33.252 29.3366 33.0463 29.6999 32.7045 29.8823C32.4839 30 32.1272 30 31.4138 30H18.5863C17.8729 30 17.5161 30 17.2955 29.8823C16.9537 29.6999 16.748 29.3366 16.7675 28.9497C16.7801 28.7 16.9636 28.3941 17.3306 27.7823L17.8841 26.8599C18.6143 25.6429 19 24.2503 19 22.831V21Z" fill="#FFBB38"/>
<path d="M27.35 31C27.4328 31 27.5007 31.0673 27.493 31.1498C27.4484 31.6254 27.1923 32.0746 26.7678 32.4142C26.2989 32.7893 25.663 33 25 33C24.337 33 23.7011 32.7893 23.2322 32.4142C22.8077 32.0746 22.5516 31.6254 22.507 31.1498C22.4993 31.0673 22.5672 31 22.65 31L25 31L27.35 31Z" fill="#B1B1B1"/>
</svg>
