<svg width="50" height="50" viewBox="0 0 50 50" fill="none" xmlns="http://www.w3.org/2000/svg">
<circle cx="25" cy="25" r="25" fill="#E7EDFF"/>
<path d="M32 29V21H18V29C18 30.8856 18 31.8284 18.5858 32.4142C19.1716 33 20.1144 33 22 33H28C29.8856 33 30.8284 33 31.4142 32.4142C32 31.8284 32 30.8856 32 29Z" stroke="#396AFF" stroke-width="1.2"/>
<path d="M30.3636 17H19.6364C18.1017 17 17.3343 17 16.8014 17.3989C16.6488 17.5132 16.5132 17.6488 16.3989 17.8014C16 18.3343 16 19.1017 16 20.6364C16 20.7898 16 20.8666 16.0399 20.9199C16.0513 20.9351 16.0649 20.9487 16.0801 20.9601C16.1334 21 16.2102 21 16.3636 21H18H32H33.6364C33.7898 21 33.8666 21 33.9199 20.9601C33.9351 20.9487 33.9487 20.9351 33.9601 20.9199C34 20.8666 34 20.7898 34 20.6364C34 19.1017 34 18.3343 33.6011 17.8014C33.4868 17.6488 33.3512 17.5132 33.1986 17.3989C32.6657 17 31.8983 17 30.3636 17Z" stroke="#396AFF" stroke-width="1.2"/>
<path d="M23 29H27" stroke="#B1B1B1" stroke-width="1.2" stroke-linecap="round"/>
</svg>
