<svg width="30" height="30" viewBox="0 0 30 30" fill="none" xmlns="http://www.w3.org/2000/svg">
<path fill-rule="evenodd" clip-rule="evenodd" d="M9.62905 3.4685L16.8186 2.33872C20.0392 1.83263 21.6495 1.57958 22.6997 2.4777C23.75 3.37582 23.75 5.00587 23.75 8.26598V13.9995H15.8306L19.5309 9.37419L17.9691 8.1248L12.9691 14.3748L12.4694 14.9995L12.9691 15.6242L17.9691 21.8742L19.5309 20.6248L15.8306 15.9995H23.75V21.733C23.75 24.9931 23.75 26.6232 22.6997 27.5213C21.6495 28.4194 20.0392 28.1664 16.8186 27.6603L9.62905 26.5305C8.01632 26.2771 7.20995 26.1503 6.72998 25.5891C6.25 25.0278 6.25 24.2115 6.25 22.579V7.42001C6.25 5.78749 6.25 4.97122 6.72998 4.40993C7.20995 3.84864 8.01632 3.72193 9.62905 3.4685Z" fill="#FF82AC"/>
</svg>
