<svg width="26" height="23" viewBox="0 0 26 23" fill="none" xmlns="http://www.w3.org/2000/svg">
<path d="M25.9824 0.939771C26.1091 0.339268 25.5307 -0.167069 24.9664 0.0520664L0.490037 9.56171C0.195457 9.67618 0.000610804 9.96354 1.43342e-06 10.2844C-0.000607937 10.6054 0.193121 10.8935 0.487294 11.0091L7.36317 13.7119V22.2247C7.36317 22.5838 7.60545 22.8959 7.94873 22.9789C8.28972 23.0615 8.64529 22.8963 8.80515 22.5736L11.6489 16.8302L18.5888 22.072C19.011 22.3909 19.6178 22.1881 19.7714 21.6756C26.251 0.0537727 25.9708 0.994089 25.9824 0.939771ZM19.9404 3.66439L8.01692 12.3067L2.88664 10.2902L19.9404 3.66439ZM8.8866 13.5798L19.2798 6.04671C10.3366 15.6489 10.8037 15.1435 10.7647 15.1969C10.7067 15.2762 10.8655 14.967 8.8866 18.9636V13.5798ZM18.6293 20.1718L12.5206 15.5577L23.566 3.6985L18.6293 20.1718Z" fill="white"/>
</svg>
