<svg width="30" height="30" viewBox="0 0 30 30" fill="none" xmlns="http://www.w3.org/2000/svg">
<path fill-rule="evenodd" clip-rule="evenodd" d="M8.75441 8H11.2501C12.3546 8 13.2501 8.89543 13.2501 10C13.2501 11.1046 12.3546 12 11.2501 12H8.75006V14.25H11.2501C12.3546 14.25 13.2501 15.1454 13.2501 16.25C13.2501 17.3546 12.3546 18.25 11.2501 18.25H8.75006V20.5H11.2501C12.3546 20.5 13.2501 21.3954 13.2501 22.5C13.2501 23.6046 12.3546 24.5 11.2501 24.5H8.83108C8.90672 25.0153 9.053 25.3814 9.33585 25.6642C9.92163 26.25 10.8644 26.25 12.7501 26.25H21.0001C22.8857 26.25 23.8285 26.25 24.4143 25.6642C25.0001 25.0784 25.0001 24.1356 25.0001 22.25V9C25.0001 7.11438 25.0001 6.17157 24.4143 5.58579C23.8285 5 22.8857 5 21.0001 5H12.7501C10.8644 5 9.92163 5 9.33585 5.58579C8.86431 6.05733 8.77234 6.76022 8.75441 8ZM20 13.5C19.4477 13.5 19 13.0523 19 12.5V10C19 9.44772 19.4477 9 20 9C20.5523 9 21 9.44772 21 10V12.5C21 13.0523 20.5523 13.5 20 13.5ZM6.25 9C5.69772 9 5.25 9.44772 5.25 10C5.25 10.5523 5.69772 11 6.25 11H11.25C11.8023 11 12.25 10.5523 12.25 10C12.25 9.44772 11.8023 9 11.25 9H6.25ZM6.25 15.25C5.69772 15.25 5.25 15.6977 5.25 16.25C5.25 16.8023 5.69772 17.25 6.25 17.25H11.25C11.8023 17.25 12.25 16.8023 12.25 16.25C12.25 15.6977 11.8023 15.25 11.25 15.25H6.25ZM6.25 21.5C5.69772 21.5 5.25 21.9477 5.25 22.5C5.25 23.0523 5.69772 23.5 6.25 23.5H11.25C11.8023 23.5 12.25 23.0523 12.25 22.5C12.25 21.9477 11.8023 21.5 11.25 21.5H6.25Z" fill="#B1B1B1"/>
</svg>
