<svg width="30" height="30" viewBox="0 0 30 30" fill="none" xmlns="http://www.w3.org/2000/svg">
<path d="M5 10L4.29289 10.7071L3.58579 10L4.29289 9.29289L5 10ZM11.25 24.75C10.6977 24.75 10.25 24.3023 10.25 23.75C10.25 23.1977 10.6977 22.75 11.25 22.75L11.25 24.75ZM10.5429 16.9571L4.29289 10.7071L5.70711 9.29289L11.9571 15.5429L10.5429 16.9571ZM4.29289 9.29289L10.5429 3.04289L11.9571 4.45711L5.70711 10.7071L4.29289 9.29289ZM5 9L18.125 9L18.125 11L5 11L5 9ZM18.125 24.75L11.25 24.75L11.25 22.75L18.125 22.75L18.125 24.75ZM26 16.875C26 21.2242 22.4742 24.75 18.125 24.75L18.125 22.75C21.3697 22.75 24 20.1197 24 16.875L26 16.875ZM18.125 9C22.4742 9 26 12.5258 26 16.875L24 16.875C24 13.6303 21.3697 11 18.125 11L18.125 9Z" fill="#152A4F"/>
</svg>
