<svg width="30" height="30" viewBox="0 0 30 30" fill="none" xmlns="http://www.w3.org/2000/svg">
<path d="M9 18H5C3.89543 18 3 17.1046 3 16V6C3 4.89543 3.89543 4 5 4H17C18.1046 4 19 4.89543 19 6V8" stroke="#B1B1B1" stroke-width="2"/>
<path d="M4 8H20" stroke="#B1B1B1" stroke-width="2"/>
<path d="M4 13H9" stroke="#B1B1B1" stroke-width="2"/>
<path d="M14.2908 20.9723C13.9545 20.3677 13.9545 19.6323 14.2908 19.0277L15.2693 17.2688L16.3034 15.5419C16.6588 14.9483 17.2957 14.5806 17.9874 14.5696L20 14.5375L22.0126 14.5696C22.7043 14.5806 23.3412 14.9483 23.6966 15.5419L24.7307 17.2687L25.7092 19.0277C26.0455 19.6323 26.0455 20.3677 25.7092 20.9723L24.7307 22.7312L23.6966 24.4581C23.3412 25.0517 22.7043 25.4194 22.0126 25.4304L20 25.4625L17.9874 25.4304C17.2957 25.4194 16.6588 25.0517 16.3034 24.4581L15.2693 22.7312L14.2908 20.9723Z" stroke="#B1B1B1" stroke-width="2"/>
<circle cx="20" cy="20" r="1.25" fill="#B1B1B1"/>
</svg>
